<svg width="154" height="36" viewBox="0 0 154 36" fill="none" xmlns="http://www.w3.org/2000/svg">
<path d="M22.8125 21.6406L19.8438 30H12.8906L6.875 14.5469C6.75 14.224 6.63542 13.9583 6.53125 13.75C6.42708 13.5312 6.28125 13.349 6.09375 13.2031C5.91667 13.0469 5.6875 12.9375 5.40625 12.875C5.125 12.8125 4.76042 12.7812 4.3125 12.7812V6.98438H17.375V12.7812C16.8229 12.7812 16.4271 12.9167 16.1875 13.1875C15.9583 13.4479 15.9271 13.8385 16.0938 14.3594L18.375 21.9375H18.5L20.5469 15.4688L20.2188 14.5469C19.9896 13.9219 19.7708 13.474 19.5625 13.2031C19.3646 12.9219 19.0208 12.7812 18.5312 12.7812V6.98438H30.9062V12.7812C30.125 12.7812 29.6406 12.9167 29.4531 13.1875C29.276 13.4479 29.2708 13.8385 29.4375 14.3594L31.3906 21.9375H31.5156L33.8594 14.3594C34.1823 13.3073 33.5833 12.7812 32.0625 12.7812V6.98438H41.1562V12.7812C40.7083 12.7812 40.3385 12.8125 40.0469 12.875C39.7552 12.9375 39.526 13.0417 39.3594 13.1875C39.1927 13.3229 39.0521 13.5052 38.9375 13.7344C38.8333 13.9531 38.7188 14.224 38.5938 14.5469L32.8594 30H25.9219L22.8125 21.6406ZM49.6719 14.9531C49.1406 14.9531 48.6823 14.9948 48.2969 15.0781C47.9219 15.151 47.599 15.2396 47.3281 15.3438C47.0573 15.4479 46.8333 15.5677 46.6562 15.7031C46.4792 15.8281 46.3229 15.9427 46.1875 16.0469L46.3438 16.2031C46.5417 16.099 46.7552 15.9948 46.9844 15.8906C47.224 15.7865 47.526 15.7344 47.8906 15.7344C48.5052 15.7344 49.0365 15.9375 49.4844 16.3438C49.9323 16.7396 50.1562 17.375 50.1562 18.25C50.1562 19.0833 49.8125 19.7552 49.125 20.2656C48.4479 20.7656 47.5365 21.0156 46.3906 21.0156C45.2969 21.0156 44.4219 20.7031 43.7656 20.0781C43.1198 19.4427 42.7969 18.5469 42.7969 17.3906C42.7969 16.7552 42.974 16.125 43.3281 15.5C43.6823 14.8646 44.2292 14.2969 44.9688 13.7969C45.7188 13.2969 46.6667 12.8854 47.8125 12.5625C48.9688 12.2396 50.3594 12.0781 51.9844 12.0781C53.9219 12.0781 55.5052 12.2604 56.7344 12.625C57.9635 12.9896 58.9167 13.4583 59.5938 14.0312C60.2812 14.6042 60.75 15.2552 61 15.9844C61.2604 16.7135 61.3906 17.4479 61.3906 18.1875V24.2969C61.3906 25.2448 61.4219 25.8906 61.4844 26.2344C61.5469 26.5677 61.7812 26.7344 62.1875 26.7344C62.5104 26.7344 62.7344 26.5833 62.8594 26.2812C62.9948 25.9688 63.0625 25.4375 63.0625 24.6875V22.7344H64.8438V24.7188C64.8438 25.6562 64.7656 26.4896 64.6094 27.2188C64.4531 27.9375 64.1562 28.5573 63.7188 29.0781C63.2812 29.5885 62.6875 29.974 61.9375 30.2344C61.1875 30.5052 60.2292 30.6406 59.0625 30.6406C58.0104 30.6406 57.1354 30.526 56.4375 30.2969C55.75 30.0781 55.2031 29.8021 54.7969 29.4688C54.3906 29.1354 54.099 28.7917 53.9219 28.4375C53.7552 28.0729 53.6719 27.75 53.6719 27.4688H53.4219C53.3594 27.8958 53.1771 28.3021 52.875 28.6875C52.5833 29.0729 52.1719 29.4167 51.6406 29.7188C51.1198 30.0104 50.4896 30.2448 49.75 30.4219C49.0208 30.6094 48.1875 30.7031 47.25 30.7031C46.3542 30.7031 45.5365 30.6146 44.7969 30.4375C44.0677 30.2708 43.4427 30.0052 42.9219 29.6406C42.4115 29.2656 42.0104 28.7865 41.7188 28.2031C41.4375 27.6094 41.2969 26.9062 41.2969 26.0938C41.2969 25.0938 41.5781 24.3073 42.1406 23.7344C42.7031 23.151 43.4115 22.6927 44.2656 22.3594C45.1198 22.0156 46.0469 21.7396 47.0469 21.5312C48.0573 21.3125 48.9896 21.0521 49.8438 20.75C50.6979 20.4479 51.4062 20.0573 51.9688 19.5781C52.5312 19.099 52.8125 18.4219 52.8125 17.5469C52.8125 16.7656 52.5677 16.1406 52.0781 15.6719C51.5885 15.1927 50.7865 14.9531 49.6719 14.9531ZM52.8125 21.7188C52.5833 22.0521 52.2969 22.3229 51.9531 22.5312C51.6094 22.7292 51.276 22.9271 50.9531 23.125C50.6406 23.3125 50.3646 23.5417 50.125 23.8125C49.8958 24.0729 49.7812 24.4271 49.7812 24.875C49.7812 25.2188 49.875 25.5312 50.0625 25.8125C50.25 26.0833 50.6146 26.2188 51.1562 26.2188C51.6458 26.2188 52.0417 26.0312 52.3438 25.6562C52.6562 25.2708 52.8125 24.7344 52.8125 24.0469V21.7188ZM76.7812 6.98438V22.5156C76.7812 23.2135 76.9531 23.6719 77.2969 23.8906C77.6406 24.099 78.0781 24.2031 78.6094 24.2031H79.0312V30H65.875V24.2031H66.4844C67.0365 24.2031 67.4427 24.0312 67.7031 23.6875C67.974 23.3333 68.1094 22.9531 68.1094 22.5469V14.5469C68.1094 13.9427 67.9167 13.5 67.5312 13.2188C67.1562 12.9271 66.7188 12.7812 66.2188 12.7812H65.875V6.98438H76.7812ZM95.0312 20.0156C95.0312 19.6094 94.9792 19.2865 94.875 19.0469C94.7812 18.7969 94.6562 18.6094 94.5 18.4844C94.3542 18.349 94.1875 18.2604 94 18.2188C93.8125 18.1771 93.6302 18.1562 93.4531 18.1562C92.776 18.1562 92.2708 18.3542 91.9375 18.75C91.6042 19.1458 91.4375 19.7083 91.4375 20.4375V22.6719C91.4375 23.224 91.5312 23.6198 91.7188 23.8594C91.9167 24.0885 92.2917 24.2031 92.8438 24.2031H93.6875V30H80.625V24.2031H81.5469C81.974 24.2031 82.2969 24.0677 82.5156 23.7969C82.7448 23.5156 82.8594 23.1823 82.8594 22.7969V19.8281C82.8594 19.3385 82.7135 19.0104 82.4219 18.8438C82.1406 18.6667 81.8177 18.5781 81.4531 18.5781H80.625V12.7812H89.9062L89.5781 17.0781H89.8438C90.0729 15.474 90.776 14.2396 91.9531 13.375C93.1302 12.5104 94.7292 12.0781 96.75 12.0781C98.1771 12.0781 99.3385 12.2812 100.234 12.6875C101.13 13.0938 101.823 13.6094 102.312 14.2344C102.812 14.849 103.151 15.5208 103.328 16.25C103.505 16.9688 103.594 17.6458 103.594 18.2812V22.6719C103.594 23.224 103.688 23.6198 103.875 23.8594C104.073 24.0885 104.448 24.2031 105 24.2031H105.844V30H95.0312V20.0156ZM129.453 22.9531C129.453 23.4531 129.594 23.7865 129.875 23.9531C130.167 24.1198 130.495 24.2031 130.859 24.2031H131.688V30H122.406V25.7188H122.156C121.917 27.3125 121.266 28.5208 120.203 29.3438C119.141 30.1667 117.594 30.5781 115.562 30.5781C114.135 30.5781 112.974 30.375 112.078 29.9688C111.182 29.5625 110.49 29.0521 110 28.4375C109.51 27.8125 109.172 27.1406 108.984 26.4219C108.807 25.6927 108.719 25.0104 108.719 24.375V20.1094C108.719 19.5573 108.62 19.1667 108.422 18.9375C108.234 18.6979 107.865 18.5781 107.312 18.5781H106.375V12.7812H117.297V22.6406C117.297 23.0469 117.344 23.375 117.438 23.625C117.531 23.8646 117.651 24.0521 117.797 24.1875C117.953 24.3125 118.125 24.3958 118.312 24.4375C118.51 24.4792 118.693 24.5 118.859 24.5C119.547 24.5 120.052 24.3021 120.375 23.9062C120.708 23.5104 120.875 22.9479 120.875 22.2188V20.1094C120.875 19.5573 120.776 19.1667 120.578 18.9375C120.391 18.6979 120.021 18.5781 119.469 18.5781H118.547V12.7812H129.453V22.9531ZM143.922 6.98438V12.7812H148.594V18.5781H143.922V23.375C143.922 24.0625 144.016 24.625 144.203 25.0625C144.401 25.5 144.802 25.7188 145.406 25.7188C145.74 25.7188 146.005 25.6562 146.203 25.5312C146.411 25.3958 146.573 25.224 146.688 25.0156C146.812 24.7969 146.891 24.5521 146.922 24.2812C146.953 24 146.969 23.6979 146.969 23.375V21.0469H148.766V23.5625C148.766 24.5729 148.656 25.5156 148.438 26.3906C148.229 27.2656 147.865 28.0208 147.344 28.6562C146.833 29.2917 146.135 29.7969 145.25 30.1719C144.365 30.5469 143.25 30.7344 141.906 30.7344C140.417 30.7344 139.229 30.5521 138.344 30.1875C137.458 29.8229 136.786 29.3229 136.328 28.6875C135.87 28.0521 135.568 27.2969 135.422 26.4219C135.286 25.5469 135.219 24.5938 135.219 23.5625V18.5781H132.766V13.4219C133.547 13.4219 134.271 13.2552 134.938 12.9219C135.615 12.5781 136.193 12.1094 136.672 11.5156C137.161 10.9115 137.536 10.224 137.797 9.45312C138.068 8.68229 138.203 7.85938 138.203 6.98438H143.922Z" fill="#FF9B00"/>
</svg>
